NotoSansCaucasianAlbanian-Regular.ufo
<glyph name="uni0331" format="2">
  <unicode hex="0331"/>
  <outline>
    <contour>
      <point x="-148" y="-177" type="line"/>
      <point x="149" y="-177" type="line"/>
      <point x="149" y="-107" type="line"/>
      <point x="-148" y="-107" type="line"/>
    </contour>
  </outline>
</glyph>
<glyph name="uniFE20" format="2">
  <unicode hex="FE20"/>
  <outline>
    <contour>
      <point x="-368" y="736" type="curve"/>
      <point x="-303" y="736" type="line"/>
      <point x="-250" y="809"/>
      <point x="-143" y="854"/>
      <point x="-3" y="854" type="curve" smooth="yes"/>
      <point x="5" y="854" type="line"/>
      <point x="5" y="924" type="line"/>
      <point x="-1" y="924" type="line" smooth="yes"/>
      <point x="-170" y="924"/>
      <point x="-294" y="868"/>
    </contour>
  </outline>
</glyph>
<glyph name="uniFE22" format="2">
  <unicode hex="FE22"/>
  <outline>
    <contour>
      <point x="-367" y="802" type="curve"/>
      <point x="-307" y="802" type="line"/>
      <point x="-297" y="839"/>
      <point x="-263" y="863"/>
      <point x="-190" y="863" type="curve" smooth="yes"/>
      <point x="-120" y="863"/>
      <point x="-56" y="847"/>
      <point x="6" y="831" type="curve"/>
      <point x="6" y="898" type="line"/>
      <point x="-56" y="914"/>
      <point x="-119" y="930"/>
      <point x="-188" y="930" type="curve" smooth="yes"/>
      <point x="-285" y="930"/>
      <point x="-351" y="892"/>
    </contour>
  </outline>
</glyph>
<glyph name="uniFE23" format="2">
  <unicode hex="FE23"/>
  <outline>
    <contour>
      <point x="187" y="803" type="curve" smooth="yes"/>
      <point x="283" y="803"/>
      <point x="348" y="841"/>
      <point x="364" y="931" type="curve"/>
      <point x="306" y="931" type="line"/>
      <point x="298" y="894"/>
      <point x="264" y="870"/>
      <point x="189" y="870" type="curve" smooth="yes"/>
      <point x="112" y="870"/>
      <point x="57" y="884"/>
      <point x="-5" y="901" type="curve"/>
      <point x="-5" y="834" type="line"/>
      <point x="57" y="817"/>
      <point x="111" y="803"/>
    </contour>
  </outline>
</glyph>
<glyph name="uniFE25" format="2">
  <unicode hex="FE25"/>
  <outline>
    <contour>
      <point x="-110" y="823" type="line"/>
      <point x="307" y="823" type="line"/>
      <point x="307" y="893" type="line"/>
      <point x="-110" y="893" type="line"/>
    </contour>
  </outline>
</glyph>
<glyph name="uniFE26" format="2">
  <unicode hex="FE26"/>
  <outline>
    <contour>
      <point x="-365" y="823" type="line"/>
      <point x="365" y="823" type="line"/>
      <point x="365" y="893" type="line"/>
      <point x="-365" y="893" type="line"/>
    </contour>
  </outline>
</glyph>
<glyph name="uniFE27" format="2">
  <unicode hex="FE27"/>
  <outline>
    <contour>
      <point x="-368" y="-83" type="line"/>
      <point x="-294" y="-215"/>
      <point x="-170" y="-271"/>
      <point x="-1" y="-271" type="curve" smooth="yes"/>
      <point x="5" y="-271" type="line"/>
      <point x="5" y="-201" type="line"/>
      <point x="-3" y="-201" type="line" smooth="yes"/>
      <point x="-143" y="-201"/>
      <point x="-250" y="-156"/>
      <point x="-303" y="-83" type="curve"/>
    </contour>
  </outline>
</glyph>
<glyph name="uniFE29" format="2">
  <unicode hex="FE29"/>
  <outline>
    <contour>
      <point x="-367" y="-231" type="curve"/>
      <point x="-307" y="-231" type="line"/>
      <point x="-297" y="-194"/>
      <point x="-263" y="-170"/>
      <point x="-190" y="-170" type="curve" smooth="yes"/>
      <point x="-120" y="-170"/>
      <point x="-56" y="-186"/>
      <point x="6" y="-202" type="curve"/>
      <point x="6" y="-135" type="line"/>
      <point x="-56" y="-119"/>
      <point x="-119" y="-103"/>
      <point x="-188" y="-103" type="curve" smooth="yes"/>
      <point x="-285" y="-103"/>
      <point x="-351" y="-141"/>
    </contour>
  </outline>
</glyph>
<glyph name="uniFE2A" format="2">
  <unicode hex="FE2A"/>
  <outline>
    <contour>
      <point x="187" y="-230" type="curve" smooth="yes"/>
      <point x="283" y="-230"/>
      <point x="348" y="-192"/>
      <point x="364" y="-102" type="curve"/>
      <point x="306" y="-102" type="line"/>
      <point x="298" y="-139"/>
      <point x="264" y="-163"/>
      <point x="189" y="-163" type="curve" smooth="yes"/>
      <point x="112" y="-163"/>
      <point x="57" y="-149"/>
      <point x="-5" y="-132" type="curve"/>
      <point x="-5" y="-199" type="line"/>
      <point x="57" y="-216"/>
      <point x="111" y="-230"/>
    </contour>
  </outline>
</glyph>
<glyph name="uniFE2D" format="2">
  <unicode hex="FE2D"/>
  <outline>
    <contour>
      <point x="-365" y="-177" type="line"/>
      <point x="365" y="-177" type="line"/>
      <point x="365" y="-107" type="line"/>
      <point x="-365" y="-107" type="line"/>
    </contour>
  </outline>
</glyph>
<glyph name="uniFE2E" format="2">
  <unicode hex="FE2E"/>
  <outline>
    <contour>
      <point x="-283" y="807" type="curve" smooth="yes"/>
      <point x="-255" y="807"/>
      <point x="-238" y="825"/>
      <point x="-233" y="854" type="curve"/>
      <point x="5" y="854" type="line"/>
      <point x="5" y="924" type="line"/>
      <point x="-266" y="924" type="line" smooth="yes"/>
      <point x="-313" y="924"/>
      <point x="-333" y="900"/>
      <point x="-333" y="861" type="curve" smooth="yes"/>
      <point x="-333" y="829"/>
      <point x="-315" y="807"/>
    </contour>
  </outline>
</glyph>
<glyph name="u10531" format="2">
  <advance width="536"/>
  <unicode hex="10531"/>
  <outline>
    <contour>
      <point x="91" y="529" type="line"/>
      <point x="447" y="529" type="line"/>
      <point x="447" y="606" type="line"/>
      <point x="91" y="606" type="line"/>
    </contour>
    <contour>
      <point x="285" y="-10" type="curve" smooth="yes"/>
      <point x="434" y="-10"/>
      <point x="506" y="79"/>
      <point x="506" y="205" type="curve" smooth="yes"/>
      <point x="506" y="317"/>
      <point x="443" y="410"/>
      <point x="260" y="410" type="curve" smooth="yes"/>
      <point x="156" y="410" type="line"/>
      <point x="156" y="714" type="line"/>
      <point x="70" y="714" type="line"/>
      <point x="70" y="216" type="line" smooth="yes"/>
      <point x="70" y="84"/>
      <point x="122" y="-10"/>
    </contour>
    <contour>
      <point x="284" y="63" type="curve" smooth="yes"/>
      <point x="200" y="63"/>
      <point x="156" y="109"/>
      <point x="156" y="224" type="curve" smooth="yes"/>
      <point x="156" y="333" type="line"/>
      <point x="249" y="333" type="line" smooth="yes"/>
      <point x="359" y="333"/>
      <point x="417" y="295"/>
      <point x="417" y="205" type="curve" smooth="yes"/>
      <point x="417" y="115"/>
      <point x="370" y="63"/>
    </contour>
  </outline>
</glyph>
<glyph name="u10532" format="2">
  <advance width="577"/>
  <unicode hex="10532"/>
  <outline>
    <contour>
      <point x="365" y="0" type="line"/>
      <point x="453" y="0" type="line"/>
      <point x="453" y="241" type="line"/>
      <point x="426" y="232"/>
      <point x="398" y="229"/>
      <point x="367" y="229" type="curve" smooth="yes"/>
      <point x="208" y="229"/>
      <point x="142" y="307"/>
      <point x="142" y="438" type="curve" smooth="yes"/>
      <point x="142" y="560"/>
      <point x="200" y="650"/>
      <point x="313" y="650" type="curve" smooth="yes"/>
      <point x="410" y="650"/>
      <point x="459" y="588"/>
      <point x="459" y="471" type="curve"/>
      <point x="547" y="471" type="line"/>
      <point x="547" y="636"/>
      <point x="468" y="724"/>
      <point x="314" y="724" type="curve" smooth="yes"/>
      <point x="144" y="724"/>
      <point x="50" y="610"/>
      <point x="50" y="437" type="curve" smooth="yes"/>
      <point x="50" y="259"/>
      <point x="139" y="153"/>
      <point x="365" y="153" type="curve"/>
    </contour>
  </outline>
</glyph>
<glyph name="u10533" format="2">
  <advance width="592"/>
  <unicode hex="10533"/>
  <outline>
    <contour>
      <point x="253" y="0" type="line"/>
      <point x="341" y="0" type="line"/>
      <point x="341" y="187" type="line"/>
      <point x="479" y="197"/>
      <point x="562" y="309"/>
      <point x="562" y="455" type="curve" smooth="yes"/>
      <point x="562" y="605"/>
      <point x="474" y="724"/>
      <point x="298" y="724" type="curve" smooth="yes"/>
      <point x="121" y="724"/>
      <point x="30" y="605"/>
      <point x="30" y="454" type="curve" smooth="yes"/>
      <point x="30" y="308"/>
      <point x="114" y="197"/>
      <point x="253" y="187" type="curve"/>
    </contour>
    <contour>
      <point x="297" y="261" type="curve" smooth="yes"/>
      <point x="184" y="261"/>
      <point x="120" y="333"/>
      <point x="120" y="455" type="curve" smooth="yes"/>
      <point x="120" y="559"/>
      <point x="167" y="650"/>
      <point x="297" y="650" type="curve" smooth="yes"/>
      <point x="423" y="650"/>
      <point x="472" y="564"/>
      <point x="472" y="455" type="curve" smooth="yes"/>
      <point x="472" y="334"/>
      <point x="411" y="261"/>
    </contour>
  </outline>
</glyph>
<glyph name="u10535" format="2">
  <advance width="522"/>
  <unicode hex="10535"/>
  <outline>
    <contour>
      <point x="261" y="-10" type="curve" smooth="yes"/>
      <point x="405" y="-10"/>
      <point x="492" y="75"/>
      <point x="492" y="212" type="curve" smooth="yes"/>
      <point x="492" y="363"/>
      <point x="387" y="433"/>
      <point x="302" y="489" type="curve" smooth="yes"/>
      <point x="207" y="552"/>
      <point x="185" y="576"/>
      <point x="172" y="714" type="curve"/>
      <point x="85" y="714" type="line"/>
      <point x="96" y="528"/>
      <point x="158" y="486"/>
      <point x="259" y="421" type="curve" smooth="yes"/>
      <point x="342" y="368"/>
      <point x="403" y="325"/>
      <point x="403" y="216" type="curve" smooth="yes"/>
      <point x="403" y="121"/>
      <point x="361" y="64"/>
      <point x="264" y="64" type="curve" smooth="yes"/>
      <point x="160" y="64"/>
      <point x="129" y="130"/>
      <point x="129" y="205" type="curve" smooth="yes"/>
      <point x="129" y="240"/>
      <point x="136" y="282"/>
      <point x="151" y="313" type="curve"/>
      <point x="76" y="347" type="line"/>
      <point x="52" y="302"/>
      <point x="40" y="246"/>
      <point x="40" y="199" type="curve" smooth="yes"/>
      <point x="40" y="89"/>
      <point x="105" y="-10"/>
    </contour>
  </outline>
</glyph>
<glyph name="u10536" format="2">
  <advance width="438"/>
  <unicode hex="10536"/>
  <outline>
    <contour>
      <point x="80" y="0" type="line"/>
      <point x="168" y="0" type="line"/>
      <point x="168" y="637" type="line"/>
      <point x="408" y="637" type="line"/>
      <point x="408" y="714" type="line"/>
      <point x="80" y="714" type="line"/>
    </contour>
    <contour>
      <point x="80" y="0" type="line"/>
      <point x="408" y="0" type="line"/>
      <point x="408" y="77" type="line"/>
      <point x="80" y="77" type="line"/>
    </contour>
  </outline>
</glyph>
<glyph name="u10537" format="2">
  <advance width="542"/>
  <unicode hex="10537"/>
  <outline>
    <contour>
      <point x="116" y="120" type="line"/>
      <point x="472" y="120" type="line"/>
      <point x="472" y="197" type="line"/>
      <point x="116" y="197" type="line"/>
    </contour>
    <contour>
      <point x="168" y="0" type="line"/>
      <point x="168" y="302" type="line"/>
      <point x="262" y="302" type="line" smooth="yes"/>
      <point x="407" y="302"/>
      <point x="512" y="360"/>
      <point x="512" y="504" type="curve" smooth="yes"/>
      <point x="512" y="633"/>
      <point x="428" y="714"/>
      <point x="272" y="714" type="curve" smooth="yes"/>
      <point x="148" y="714" type="line"/>
      <point x="148" y="637" type="line"/>
      <point x="251" y="637" type="line" smooth="yes"/>
      <point x="361" y="637"/>
      <point x="421" y="595"/>
      <point x="421" y="507" type="curve" smooth="yes"/>
      <point x="421" y="414"/>
      <point x="355" y="379"/>
      <point x="251" y="379" type="curve" smooth="yes"/>
      <point x="168" y="379" type="line"/>
      <point x="168" y="714" type="line"/>
      <point x="80" y="714" type="line"/>
      <point x="80" y="0" type="line"/>
    </contour>
  </outline>
</glyph>
<glyph name="u10538" format="2">
  <advance width="535"/>
  <unicode hex="10538"/>
  <outline>
    <contour>
      <point x="102" y="637" type="line"/>
      <point x="421" y="637" type="line"/>
      <point x="421" y="714" type="line"/>
      <point x="102" y="714" type="line"/>
    </contour>
    <contour>
      <point x="102" y="463" type="line"/>
      <point x="190" y="463" type="line"/>
      <point x="190" y="663" type="line"/>
      <point x="102" y="663" type="line"/>
    </contour>
    <contour>
      <point x="247" y="-10" type="curve" smooth="yes"/>
      <point x="396" y="-10"/>
      <point x="465" y="80"/>
      <point x="465" y="248" type="curve" smooth="yes"/>
      <point x="465" y="714" type="line"/>
      <point x="377" y="714" type="line"/>
      <point x="377" y="237" type="line" smooth="yes"/>
      <point x="377" y="126"/>
      <point x="341" y="64"/>
      <point x="246" y="64" type="curve" smooth="yes"/>
      <point x="163" y="64"/>
      <point x="119" y="109"/>
      <point x="119" y="224" type="curve" smooth="yes"/>
      <point x="119" y="269" type="line"/>
      <point x="30" y="269" type="line"/>
      <point x="30" y="222" type="line" smooth="yes"/>
      <point x="30" y="64"/>
      <point x="108" y="-10"/>
    </contour>
  </outline>
</glyph>
<glyph name="u10539" format="2">
  <advance width="577"/>
  <unicode hex="10539"/>
  <outline>
    <contour>
      <point x="416" y="-45" type="curve" smooth="yes"/>
      <point x="516" y="-45"/>
      <point x="567" y="11"/>
      <point x="567" y="102" type="curve" smooth="yes"/>
      <point x="567" y="190" type="line"/>
      <point x="485" y="190" type="line"/>
      <point x="485" y="108" type="line" smooth="yes"/>
      <point x="485" y="57"/>
      <point x="469" y="29"/>
      <point x="420" y="29" type="curve" smooth="yes"/>
      <point x="368" y="29"/>
      <point x="352" y="57"/>
      <point x="352" y="113" type="curve" smooth="yes"/>
      <point x="352" y="190" type="line"/>
      <point x="273" y="138" type="line"/>
      <point x="273" y="96" type="line" smooth="yes"/>
      <point x="273" y="7"/>
      <point x="320" y="-45"/>
    </contour>
    <contour>
      <point x="168" y="0" type="line"/>
      <point x="352" y="98" type="line"/>
      <point x="352" y="190" type="line"/>
      <point x="130" y="64" type="line"/>
    </contour>
    <contour>
      <point x="80" y="0" type="line"/>
      <point x="168" y="0" type="line"/>
      <point x="168" y="714" type="line"/>
      <point x="80" y="714" type="line"/>
    </contour>
  </outline>
</glyph>
<glyph name="u1053A" format="2">
  <advance width="418"/>
  <unicode hex="1053A"/>
  <outline>
    <contour>
      <point x="250" y="0" type="line"/>
      <point x="338" y="0" type="line"/>
      <point x="338" y="714" type="line"/>
      <point x="10" y="714" type="line"/>
      <point x="10" y="637" type="line"/>
      <point x="250" y="637" type="line"/>
    </contour>
  </outline>
</glyph>
<glyph name="u1053B" format="2">
  <advance width="476"/>
  <unicode hex="1053B"/>
  <outline>
    <contour>
      <point x="-5" y="0" type="line"/>
      <point x="88" y="0" type="line"/>
      <point x="227" y="383" type="line"/>
      <point x="231" y="383" type="line"/>
      <point x="384" y="0" type="line"/>
      <point x="481" y="0" type="line"/>
      <point x="275" y="483" type="line"/>
      <point x="308" y="558"/>
      <point x="343" y="612"/>
      <point x="408" y="662" type="curve"/>
      <point x="359" y="724" type="line"/>
      <point x="264" y="667"/>
      <point x="203" y="534"/>
      <point x="162" y="428" type="curve" smooth="yes"/>
    </contour>
  </outline>
</glyph>
<glyph name="u1053F" format="2">
  <advance width="498"/>
  <unicode hex="1053F"/>
  <outline>
    <contour>
      <point x="10" y="0" type="line"/>
      <point x="488" y="0" type="line"/>
      <point x="488" y="77" type="line"/>
      <point x="293" y="77" type="line"/>
      <point x="293" y="714" type="line"/>
      <point x="205" y="714" type="line"/>
      <point x="205" y="77" type="line"/>
      <point x="10" y="77" type="line"/>
    </contour>
  </outline>
</glyph>
<glyph name="u10540" format="2">
  <advance width="550"/>
  <unicode hex="10540"/>
  <outline>
    <contour>
      <point x="382" y="0" type="line"/>
      <point x="470" y="0" type="line"/>
      <point x="470" y="714" type="line"/>
      <point x="382" y="714" type="line"/>
      <point x="382" y="265" type="line"/>
      <point x="309" y="265" type="line" smooth="yes"/>
      <point x="186" y="265"/>
      <point x="121" y="301"/>
      <point x="121" y="393" type="curve" smooth="yes"/>
      <point x="121" y="490"/>
      <point x="180" y="527"/>
      <point x="296" y="527" type="curve" smooth="yes"/>
      <point x="396" y="527" type="line"/>
      <point x="396" y="602" type="line"/>
      <point x="287" y="602" type="line" smooth="yes"/>
      <point x="112" y="602"/>
      <point x="30" y="526"/>
      <point x="30" y="393" type="curve" smooth="yes"/>
      <point x="30" y="280"/>
      <point x="99" y="190"/>
      <point x="298" y="190" type="curve" smooth="yes"/>
      <point x="382" y="190" type="line"/>
    </contour>
  </outline>
</glyph>
<glyph name="u10541" format="2">
  <advance width="464"/>
  <unicode hex="10541"/>
  <outline>
    <contour>
      <point x="80" y="0" type="line"/>
      <point x="168" y="0" type="line"/>
      <point x="168" y="452" type="line"/>
      <point x="346" y="452" type="line"/>
      <point x="346" y="257" type="line"/>
      <point x="434" y="257" type="line"/>
      <point x="434" y="529" type="line"/>
      <point x="168" y="529" type="line"/>
      <point x="168" y="714" type="line"/>
      <point x="80" y="714" type="line"/>
    </contour>
  </outline>
</glyph>
<glyph name="u10544" format="2">
  <advance width="518"/>
  <unicode hex="10544"/>
  <outline>
    <contour>
      <point x="60" y="0" type="line"/>
      <point x="508" y="0" type="line"/>
      <point x="508" y="77" type="line"/>
      <point x="310" y="77" type="line" smooth="yes"/>
      <point x="257" y="77"/>
      <point x="209" y="77"/>
      <point x="159" y="76" type="curve"/>
      <point x="374" y="374" type="line"/>
      <point x="168" y="639" type="line"/>
      <point x="195" y="638"/>
      <point x="255" y="637"/>
      <point x="284" y="637" type="curve" smooth="yes"/>
      <point x="479" y="637" type="line"/>
      <point x="479" y="714" type="line"/>
      <point x="66" y="714" type="line"/>
      <point x="66" y="639" type="line"/>
      <point x="274" y="373" type="line"/>
      <point x="60" y="74" type="line"/>
    </contour>
  </outline>
</glyph>
<glyph name="u10546" format="2">
  <advance width="359"/>
  <unicode hex="10546"/>
  <outline>
    <contour>
      <point x="67" y="-5" type="line"/>
      <point x="324" y="207" type="line"/>
      <point x="246" y="714" type="line"/>
      <point x="159" y="714" type="line"/>
      <point x="232" y="240" type="line"/>
      <point x="14" y="58" type="line"/>
    </contour>
  </outline>
</glyph>
<glyph name="u10547" format="2">
  <advance width="373"/>
  <unicode hex="10547"/>
  <outline>
    <contour>
      <point x="205" y="0" type="line"/>
      <point x="293" y="0" type="line"/>
      <point x="293" y="714" type="line"/>
      <point x="205" y="714" type="line"/>
      <point x="205" y="410" type="line"/>
      <point x="10" y="410" type="line"/>
      <point x="10" y="333" type="line"/>
      <point x="205" y="333" type="line"/>
    </contour>
  </outline>
</glyph>
<glyph name="u10548" format="2">
  <advance width="691"/>
  <unicode hex="10548"/>
  <outline>
    <contour>
      <point x="10" y="637" type="line"/>
      <point x="247" y="637" type="line"/>
      <point x="247" y="714" type="line"/>
      <point x="10" y="714" type="line"/>
    </contour>
    <contour>
      <point x="388" y="-10" type="curve" smooth="yes"/>
      <point x="535" y="-10"/>
      <point x="621" y="72"/>
      <point x="621" y="244" type="curve" smooth="yes"/>
      <point x="621" y="714" type="line"/>
      <point x="533" y="714" type="line"/>
      <point x="533" y="267" type="line" smooth="yes"/>
      <point x="533" y="119"/>
      <point x="482" y="64"/>
      <point x="391" y="64" type="curve" smooth="yes"/>
      <point x="299" y="64"/>
      <point x="248" y="117"/>
      <point x="248" y="267" type="curve" smooth="yes"/>
      <point x="248" y="714" type="line"/>
      <point x="160" y="714" type="line"/>
      <point x="160" y="244" type="line" smooth="yes"/>
      <point x="160" y="71"/>
      <point x="242" y="-10"/>
    </contour>
  </outline>
</glyph>
<glyph name="u1054D" format="2">
  <advance width="498"/>
  <unicode hex="1054D"/>
  <outline>
    <contour>
      <point x="30" y="0" type="curve"/>
      <point x="115" y="0" type="line"/>
      <point x="115" y="162"/>
      <point x="166" y="213"/>
      <point x="306" y="328" type="curve" smooth="yes"/>
      <point x="416" y="418"/>
      <point x="468" y="463"/>
      <point x="468" y="548" type="curve" smooth="yes"/>
      <point x="468" y="645"/>
      <point x="399" y="724"/>
      <point x="274" y="724" type="curve" smooth="yes"/>
      <point x="151" y="724"/>
      <point x="71" y="649"/>
      <point x="71" y="538" type="curve" smooth="yes"/>
      <point x="71" y="431"/>
      <point x="147" y="370"/>
      <point x="248" y="340" type="curve"/>
      <point x="309" y="389" type="line"/>
      <point x="217" y="408"/>
      <point x="158" y="459"/>
      <point x="158" y="540" type="curve" smooth="yes"/>
      <point x="158" y="608"/>
      <point x="199" y="653"/>
      <point x="270" y="653" type="curve" smooth="yes"/>
      <point x="340" y="653"/>
      <point x="379" y="610"/>
      <point x="379" y="545" type="curve" smooth="yes"/>
      <point x="379" y="476"/>
      <point x="326" y="432"/>
      <point x="261" y="385" type="curve" smooth="yes"/>
      <point x="80" y="253"/>
      <point x="30" y="169"/>
    </contour>
    <contour>
      <point x="51" y="0" type="line"/>
      <point x="468" y="0" type="line"/>
      <point x="468" y="77" type="line"/>
      <point x="51" y="77" type="line"/>
    </contour>
  </outline>
</glyph>
<glyph name="u10553" format="2">
  <advance width="525"/>
  <unicode hex="10553"/>
  <outline>
    <contour>
      <point x="35" y="0" type="line"/>
      <point x="490" y="0" type="line"/>
      <point x="490" y="77" type="line"/>
      <point x="137" y="77" type="line"/>
      <point x="480" y="646" type="line"/>
      <point x="480" y="714" type="line"/>
      <point x="47" y="714" type="line"/>
      <point x="47" y="637" type="line"/>
      <point x="379" y="637" type="line"/>
      <point x="35" y="68" type="line"/>
    </contour>
  </outline>
</glyph>
<glyph name="u10554" format="2">
  <advance width="624"/>
  <unicode hex="10554"/>
  <outline>
    <contour>
      <point x="198" y="637" type="line"/>
      <point x="614" y="637" type="line"/>
      <point x="614" y="714" type="line"/>
      <point x="198" y="714" type="line"/>
    </contour>
    <contour>
      <point x="247" y="-10" type="curve" smooth="yes"/>
      <point x="396" y="-10"/>
      <point x="465" y="80"/>
      <point x="465" y="248" type="curve" smooth="yes"/>
      <point x="465" y="714" type="line"/>
      <point x="377" y="714" type="line"/>
      <point x="377" y="237" type="line" smooth="yes"/>
      <point x="377" y="126"/>
      <point x="341" y="64"/>
      <point x="246" y="64" type="curve" smooth="yes"/>
      <point x="163" y="64"/>
      <point x="119" y="109"/>
      <point x="119" y="224" type="curve" smooth="yes"/>
      <point x="119" y="269" type="line"/>
      <point x="30" y="269" type="line"/>
      <point x="30" y="222" type="line" smooth="yes"/>
      <point x="30" y="64"/>
      <point x="108" y="-10"/>
    </contour>
  </outline>
</glyph>
<glyph name="u10556" format="2">
  <advance width="543"/>
  <unicode hex="10556"/>
  <outline>
    <contour>
      <point x="277" y="-10" type="curve" smooth="yes"/>
      <point x="421" y="-10"/>
      <point x="513" y="73"/>
      <point x="513" y="212" type="curve" smooth="yes"/>
      <point x="513" y="334"/>
      <point x="448" y="400"/>
      <point x="365" y="466" type="curve" smooth="yes"/>
      <point x="302" y="516"/>
      <point x="280" y="534"/>
      <point x="280" y="681" type="curve" smooth="yes"/>
      <point x="280" y="714" type="line"/>
      <point x="193" y="714" type="line"/>
      <point x="193" y="686" type="line" smooth="yes"/>
      <point x="193" y="497"/>
      <point x="246" y="452"/>
      <point x="322" y="398" type="curve" smooth="yes"/>
      <point x="376" y="360"/>
      <point x="424" y="306"/>
      <point x="424" y="211" type="curve" smooth="yes"/>
      <point x="424" y="124"/>
      <point x="378" y="64"/>
      <point x="272" y="64" type="curve" smooth="yes"/>
      <point x="215" y="64"/>
      <point x="168" y="90"/>
      <point x="134" y="125" type="curve"/>
      <point x="85" y="59" type="line"/>
      <point x="128" y="21"/>
      <point x="186" y="-10"/>
    </contour>
    <contour>
      <point x="10" y="637" type="line"/>
      <point x="416" y="637" type="line"/>
      <point x="416" y="714" type="line"/>
      <point x="10" y="714" type="line"/>
    </contour>
  </outline>
</glyph>
<glyph name="u1055A" format="2">
  <advance width="607"/>
  <unicode hex="1055A"/>
  <outline>
    <contour>
      <point x="159" y="0" type="line"/>
      <point x="247" y="0" type="line"/>
      <point x="247" y="214" type="line" smooth="yes"/>
      <point x="247" y="307"/>
      <point x="283" y="398"/>
      <point x="377" y="398" type="curve" smooth="yes"/>
      <point x="445" y="398"/>
      <point x="478" y="351"/>
      <point x="478" y="244" type="curve" smooth="yes"/>
      <point x="478" y="0" type="line"/>
      <point x="566" y="0" type="line"/>
      <point x="566" y="262" type="line" smooth="yes"/>
      <point x="566" y="414"/>
      <point x="499" y="473"/>
      <point x="402" y="473" type="curve" smooth="yes"/>
      <point x="333" y="473"/>
      <point x="283" y="447"/>
      <point x="248" y="386" type="curve"/>
      <point x="243" y="386" type="line"/>
      <point x="246" y="435"/>
      <point x="247" y="465"/>
      <point x="247" y="496" type="curve" smooth="yes"/>
      <point x="247" y="714" type="line"/>
      <point x="159" y="714" type="line"/>
    </contour>
    <contour>
      <point x="10" y="637" type="line"/>
      <point x="247" y="637" type="line"/>
      <point x="247" y="714" type="line"/>
      <point x="10" y="714" type="line"/>
    </contour>
  </outline>
</glyph>
<glyph name="u1055B" format="2">
  <advance width="601"/>
  <unicode hex="1055B"/>
  <outline>
    <contour>
      <point x="80" y="0" type="line"/>
      <point x="168" y="0" type="line"/>
      <point x="168" y="714" type="line"/>
      <point x="80" y="714" type="line"/>
    </contour>
    <contour>
      <point x="442" y="173" type="curve" smooth="yes"/>
      <point x="540" y="173"/>
      <point x="591" y="229"/>
      <point x="591" y="320" type="curve" smooth="yes"/>
      <point x="591" y="388" type="line"/>
      <point x="509" y="388" type="line"/>
      <point x="509" y="327" type="line" smooth="yes"/>
      <point x="509" y="273"/>
      <point x="493" y="248"/>
      <point x="442" y="248" type="curve" smooth="yes"/>
      <point x="392" y="248"/>
      <point x="376" y="273"/>
      <point x="376" y="326" type="curve" smooth="yes"/>
      <point x="376" y="388" type="line"/>
      <point x="294" y="363" type="line"/>
      <point x="294" y="314" type="line" smooth="yes"/>
      <point x="294" y="223"/>
      <point x="344" y="173"/>
    </contour>
    <contour>
      <point x="80" y="223" type="line"/>
      <point x="376" y="310" type="line"/>
      <point x="376" y="388" type="line"/>
      <point x="80" y="298" type="line"/>
    </contour>
  </outline>
</glyph>
<glyph name="u1055D" format="2">
  <advance width="533"/>
  <unicode hex="1055D"/>
  <outline>
    <contour>
      <point x="266" y="-10" type="curve" smooth="yes"/>
      <point x="425" y="-10"/>
      <point x="503" y="75"/>
      <point x="503" y="181" type="curve" smooth="yes"/>
      <point x="503" y="299"/>
      <point x="405" y="364"/>
      <point x="237" y="364" type="curve" smooth="yes"/>
      <point x="220" y="364" type="line"/>
      <point x="161" y="312" type="line"/>
      <point x="176" y="312" type="line" smooth="yes"/>
      <point x="337" y="312"/>
      <point x="414" y="260"/>
      <point x="414" y="180" type="curve" smooth="yes"/>
      <point x="414" y="111"/>
      <point x="357" y="64"/>
      <point x="266" y="64" type="curve" smooth="yes"/>
      <point x="187" y="64"/>
      <point x="119" y="99"/>
      <point x="119" y="186" type="curve" smooth="yes"/>
      <point x="119" y="273"/>
      <point x="188" y="313"/>
      <point x="283" y="366" type="curve" smooth="yes"/>
      <point x="392" y="427"/>
      <point x="461" y="472"/>
      <point x="461" y="570" type="curve" smooth="yes"/>
      <point x="461" y="673"/>
      <point x="383" y="724"/>
      <point x="276" y="724" type="curve" smooth="yes"/>
      <point x="149" y="724"/>
      <point x="88" y="652"/>
      <point x="88" y="572" type="curve" smooth="yes"/>
      <point x="88" y="472"/>
      <point x="185" y="433"/>
      <point x="283" y="420" type="curve"/>
      <point x="339" y="471" type="line"/>
      <point x="245" y="476"/>
      <point x="175" y="506"/>
      <point x="175" y="574" type="curve" smooth="yes"/>
      <point x="175" y="622"/>
      <point x="210" y="653"/>
      <point x="275" y="653" type="curve" smooth="yes"/>
      <point x="337" y="653"/>
      <point x="373" y="625"/>
      <point x="373" y="569" type="curve" smooth="yes"/>
      <point x="373" y="497"/>
      <point x="304" y="456"/>
      <point x="226" y="413" type="curve" smooth="yes"/>
      <point x="146" y="369"/>
      <point x="30" y="304"/>
      <point x="30" y="174" type="curve" smooth="yes"/>
      <point x="30" y="58"/>
      <point x="123" y="-10"/>
    </contour>
  </outline>
</glyph>
<glyph name="u10560" format="2">
  <advance width="607"/>
  <unicode hex="10560"/>
  <outline>
    <contour>
      <point x="10" y="445" type="curve"/>
      <point x="98" y="445" type="line"/>
      <point x="98" y="571"/>
      <point x="156" y="647"/>
      <point x="302" y="647" type="curve" smooth="yes"/>
      <point x="448" y="647"/>
      <point x="509" y="575"/>
      <point x="509" y="445" type="curve"/>
      <point x="597" y="445" type="line"/>
      <point x="597" y="629"/>
      <point x="502" y="724"/>
      <point x="301" y="724" type="curve" smooth="yes"/>
      <point x="106" y="724"/>
      <point x="10" y="630"/>
    </contour>
    <contour>
      <point x="259" y="0" type="line"/>
      <point x="347" y="0" type="line"/>
      <point x="347" y="678" type="line"/>
      <point x="259" y="678" type="line"/>
    </contour>
  </outline>
</glyph>
<glyph name="u10561" format="2">
  <advance width="452"/>
  <unicode hex="10561"/>
  <outline>
    <contour>
      <point x="205" y="0" type="line"/>
      <point x="293" y="0" type="line"/>
      <point x="293" y="714" type="line"/>
      <point x="10" y="714" type="line"/>
      <point x="10" y="637" type="line"/>
      <point x="205" y="637" type="line"/>
    </contour>
    <contour>
      <point x="205" y="332" type="line"/>
      <point x="442" y="332" type="line"/>
      <point x="442" y="409" type="line"/>
      <point x="205" y="409" type="line"/>
    </contour>
  </outline>
</glyph>
<glyph name="u10563" format="2">
  <advance width="498"/>
  <unicode hex="10563"/>
  <outline>
    <contour>
      <point x="205" y="-43" type="line"/>
      <point x="293" y="-43" type="line"/>
      <point x="293" y="120" type="line"/>
      <point x="488" y="120" type="line"/>
      <point x="488" y="197" type="line"/>
      <point x="293" y="197" type="line"/>
      <point x="293" y="714" type="line"/>
      <point x="205" y="714" type="line"/>
      <point x="205" y="197" type="line"/>
      <point x="10" y="197" type="line"/>
      <point x="10" y="120" type="line"/>
      <point x="205" y="120" type="line"/>
    </contour>
  </outline>
</glyph>
<glyph name="u1056F" format="2">
  <advance width="252"/>
  <unicode hex="1056F"/>
  <outline>
    <contour>
      <point x="123" y="184" type="line"/>
      <point x="176" y="222"/>
      <point x="203" y="258"/>
      <point x="203" y="300" type="curve" smooth="yes"/>
      <point x="203" y="339"/>
      <point x="179" y="361"/>
      <point x="163" y="374" type="curve" smooth="yes"/>
      <point x="140" y="392"/>
      <point x="126" y="404"/>
      <point x="126" y="427" type="curve" smooth="yes"/>
      <point x="126" y="454"/>
      <point x="146" y="467"/>
      <point x="179" y="478" type="curve"/>
      <point x="154" y="532" type="line"/>
      <point x="94" y="520"/>
      <point x="51" y="483"/>
      <point x="51" y="422" type="curve" smooth="yes"/>
      <point x="51" y="382"/>
      <point x="71" y="361"/>
      <point x="94" y="339" type="curve" smooth="yes"/>
      <point x="116" y="318"/>
      <point x="127" y="307"/>
      <point x="127" y="289" type="curve" smooth="yes"/>
      <point x="127" y="267"/>
      <point x="108" y="251"/>
      <point x="81" y="231" type="curve"/>
    </contour>
  </outline>
</glyph>
<glyph name="u10530_fe2d" format="2">
  <advance width="511"/>
  <outline>
    <contour>
      <point x="-5" y="-271" type="line"/>
      <point x="516" y="-271" type="line"/>
      <point x="516" y="-201" type="line"/>
      <point x="-5" y="-201" type="line"/>
    </contour>
    <contour>
      <point x="74" y="-5" type="line"/>
      <point x="128" y="40"/>
      <point x="208" y="63"/>
      <point x="284" y="63" type="curve" smooth="yes"/>
      <point x="350" y="63"/>
      <point x="414" y="38"/>
      <point x="462" y="-5" type="curve"/>
      <point x="501" y="66" type="line"/>
      <point x="451" y="109"/>
      <point x="370" y="137"/>
      <point x="293" y="137" type="curve" smooth="yes"/>
      <point x="222" y="137"/>
      <point x="168" y="120"/>
      <point x="108" y="72" type="curve"/>
    </contour>
    <contour>
      <point x="74" y="-5" type="line"/>
      <point x="337" y="308" type="line" smooth="yes"/>
      <point x="412" y="398"/>
      <point x="466" y="466"/>
      <point x="466" y="551" type="curve" smooth="yes"/>
      <point x="466" y="651"/>
      <point x="391" y="724"/>
      <point x="265" y="724" type="curve" smooth="yes"/>
      <point x="133" y="724"/>
      <point x="49" y="645"/>
      <point x="49" y="532" type="curve" smooth="yes"/>
      <point x="49" y="411"/>
      <point x="145" y="351"/>
      <point x="269" y="319" type="curve"/>
      <point x="313" y="376" type="line"/>
      <point x="213" y="399"/>
      <point x="136" y="449"/>
      <point x="136" y="535" type="curve" smooth="yes"/>
      <point x="136" y="602"/>
      <point x="183" y="653"/>
      <point x="262" y="653" type="curve" smooth="yes"/>
      <point x="342" y="653"/>
      <point x="377" y="599"/>
      <point x="377" y="544" type="curve" smooth="yes"/>
      <point x="377" y="475"/>
      <point x="318" y="404"/>
      <point x="268" y="345" type="curve" smooth="yes"/>
      <point x="16" y="48" type="line"/>
    </contour>
  </outline>
</glyph>
<glyph name="u10531_fe26" format="2">
  <advance width="536"/>
  <outline>
    <contour>
      <point x="-5" y="854" type="line"/>
      <point x="541" y="854" type="line"/>
      <point x="541" y="924" type="line"/>
      <point x="-5" y="924" type="line"/>
    </contour>
    <contour>
      <point x="91" y="529" type="line"/>
      <point x="447" y="529" type="line"/>
      <point x="447" y="606" type="line"/>
      <point x="91" y="606" type="line"/>
    </contour>
    <contour>
      <point x="285" y="-10" type="curve" smooth="yes"/>
      <point x="434" y="-10"/>
      <point x="506" y="79"/>
      <point x="506" y="205" type="curve" smooth="yes"/>
      <point x="506" y="317"/>
      <point x="443" y="410"/>
      <point x="260" y="410" type="curve" smooth="yes"/>
      <point x="156" y="410" type="line"/>
      <point x="156" y="714" type="line"/>
      <point x="70" y="714" type="line"/>
      <point x="70" y="216" type="line" smooth="yes"/>
      <point x="70" y="84"/>
      <point x="122" y="-10"/>
    </contour>
    <contour>
      <point x="284" y="63" type="curve" smooth="yes"/>
      <point x="200" y="63"/>
      <point x="156" y="109"/>
      <point x="156" y="224" type="curve" smooth="yes"/>
      <point x="156" y="333" type="line"/>
      <point x="249" y="333" type="line" smooth="yes"/>
      <point x="359" y="333"/>
      <point x="417" y="295"/>
      <point x="417" y="205" type="curve" smooth="yes"/>
      <point x="417" y="115"/>
      <point x="370" y="63"/>
    </contour>
  </outline>
</glyph>
<glyph name="u10532_fe2d" format="2">
  <advance width="577"/>
  <outline>
    <contour>
      <point x="-5" y="-271" type="line"/>
      <point x="582" y="-271" type="line"/>
      <point x="582" y="-201" type="line"/>
      <point x="-5" y="-201" type="line"/>
    </contour>
    <contour>
      <point x="365" y="0" type="line"/>
      <point x="453" y="0" type="line"/>
      <point x="453" y="241" type="line"/>
      <point x="426" y="232"/>
      <point x="398" y="229"/>
      <point x="367" y="229" type="curve" smooth="yes"/>
      <point x="208" y="229"/>
      <point x="142" y="307"/>
      <point x="142" y="438" type="curve" smooth="yes"/>
      <point x="142" y="560"/>
      <point x="200" y="650"/>
      <point x="313" y="650" type="curve" smooth="yes"/>
      <point x="410" y="650"/>
      <point x="459" y="588"/>
      <point x="459" y="471" type="curve"/>
      <point x="547" y="471" type="line"/>
      <point x="547" y="636"/>
      <point x="468" y="724"/>
      <point x="314" y="724" type="curve" smooth="yes"/>
      <point x="144" y="724"/>
      <point x="50" y="610"/>
      <point x="50" y="437" type="curve" smooth="yes"/>
      <point x="50" y="259"/>
      <point x="139" y="153"/>
      <point x="365" y="153" type="curve"/>
    </contour>
  </outline>
</glyph>
<glyph name="u10536_fe2d" format="2">
  <advance width="438"/>
  <outline>
    <contour>
      <point x="-5" y="-271" type="line"/>
      <point x="443" y="-271" type="line"/>
      <point x="443" y="-201" type="line"/>
      <point x="-5" y="-201" type="line"/>
    </contour>
    <contour>
      <point x="80" y="0" type="line"/>
      <point x="168" y="0" type="line"/>
      <point x="168" y="637" type="line"/>
      <point x="408" y="637" type="line"/>
      <point x="408" y="714" type="line"/>
      <point x="80" y="714" type="line"/>
    </contour>
    <contour>
      <point x="80" y="0" type="line"/>
      <point x="408" y="0" type="line"/>
      <point x="408" y="77" type="line"/>
      <point x="80" y="77" type="line"/>
    </contour>
  </outline>
</glyph>
<glyph name="u10538_fe2d" format="2">
  <advance width="535"/>
  <outline>
    <contour>
      <point x="-5" y="-271" type="line"/>
      <point x="540" y="-271" type="line"/>
      <point x="540" y="-201" type="line"/>
      <point x="-5" y="-201" type="line"/>
    </contour>
    <contour>
      <point x="102" y="637" type="line"/>
      <point x="421" y="637" type="line"/>
      <point x="421" y="714" type="line"/>
      <point x="102" y="714" type="line"/>
    </contour>
    <contour>
      <point x="102" y="463" type="line"/>
      <point x="190" y="463" type="line"/>
      <point x="190" y="663" type="line"/>
      <point x="102" y="663" type="line"/>
    </contour>
    <contour>
      <point x="247" y="-10" type="curve" smooth="yes"/>
      <point x="396" y="-10"/>
      <point x="465" y="80"/>
      <point x="465" y="248" type="curve" smooth="yes"/>
      <point x="465" y="714" type="line"/>
      <point x="377" y="714" type="line"/>
      <point x="377" y="237" type="line" smooth="yes"/>
      <point x="377" y="126"/>
      <point x="341" y="64"/>
      <point x="246" y="64" type="curve" smooth="yes"/>
      <point x="163" y="64"/>
      <point x="119" y="109"/>
      <point x="119" y="224" type="curve" smooth="yes"/>
      <point x="119" y="269" type="line"/>
      <point x="30" y="269" type="line"/>
      <point x="30" y="222" type="line" smooth="yes"/>
      <point x="30" y="64"/>
      <point x="108" y="-10"/>
    </contour>
  </outline>
</glyph>
<glyph name="u10539_fe26" format="2">
  <advance width="577"/>
  <outline>
    <contour>
      <point x="-5" y="854" type="line"/>
      <point x="582" y="854" type="line"/>
      <point x="582" y="924" type="line"/>
      <point x="-5" y="924" type="line"/>
    </contour>
    <contour>
      <point x="416" y="-45" type="curve" smooth="yes"/>
      <point x="516" y="-45"/>
      <point x="567" y="11"/>
      <point x="567" y="102" type="curve" smooth="yes"/>
      <point x="567" y="190" type="line"/>
      <point x="485" y="190" type="line"/>
      <point x="485" y="108" type="line" smooth="yes"/>
      <point x="485" y="57"/>
      <point x="469" y="29"/>
      <point x="420" y="29" type="curve" smooth="yes"/>
      <point x="368" y="29"/>
      <point x="352" y="57"/>
      <point x="352" y="113" type="curve" smooth="yes"/>
      <point x="352" y="190" type="line"/>
      <point x="273" y="138" type="line"/>
      <point x="273" y="96" type="line" smooth="yes"/>
      <point x="273" y="7"/>
      <point x="320" y="-45"/>
    </contour>
    <contour>
      <point x="168" y="0" type="line"/>
      <point x="352" y="98" type="line"/>
      <point x="352" y="190" type="line"/>
      <point x="130" y="64" type="line"/>
    </contour>
    <contour>
      <point x="80" y="0" type="line"/>
      <point x="168" y="0" type="line"/>
      <point x="168" y="714" type="line"/>
      <point x="80" y="714" type="line"/>
    </contour>
  </outline>
</glyph>
<glyph name="u1053A_fe2d" format="2">
  <advance width="418"/>
  <outline>
    <contour>
      <point x="-5" y="-271" type="line"/>
      <point x="423" y="-271" type="line"/>
      <point x="423" y="-201" type="line"/>
      <point x="-5" y="-201" type="line"/>
    </contour>
    <contour>
      <point x="250" y="0" type="line"/>
      <point x="338" y="0" type="line"/>
      <point x="338" y="714" type="line"/>
      <point x="10" y="714" type="line"/>
      <point x="10" y="637" type="line"/>
      <point x="250" y="637" type="line"/>
    </contour>
  </outline>
</glyph>
<glyph name="u1053C_fe2d" format="2">
  <advance width="574"/>
  <outline>
    <contour>
      <point x="-5" y="-271" type="line"/>
      <point x="579" y="-271" type="line"/>
      <point x="579" y="-201" type="line"/>
      <point x="-5" y="-201" type="line"/>
    </contour>
    <contour>
      <point x="406" y="0" type="line"/>
      <point x="494" y="0" type="line"/>
      <point x="494" y="714" type="line"/>
      <point x="406" y="714" type="line"/>
      <point x="406" y="643" type="line" smooth="yes"/>
      <point x="406" y="485"/>
      <point x="367" y="406"/>
      <point x="258" y="406" type="curve" smooth="yes"/>
      <point x="172" y="406"/>
      <point x="139" y="455"/>
      <point x="139" y="580" type="curve" smooth="yes"/>
      <point x="139" y="714" type="line"/>
      <point x="51" y="714" type="line"/>
      <point x="51" y="548" type="line" smooth="yes"/>
      <point x="51" y="391"/>
      <point x="118" y="331"/>
      <point x="236" y="331" type="curve" smooth="yes"/>
      <point x="313" y="331"/>
      <point x="367" y="357"/>
      <point x="405" y="419" type="curve"/>
      <point x="410" y="419" type="line"/>
      <point x="407" y="373"/>
      <point x="406" y="339"/>
      <point x="406" y="308" type="curve" smooth="yes"/>
    </contour>
  </outline>
</glyph>
<glyph name="u1053E_fe26" format="2">
  <advance width="535"/>
  <outline>
    <contour>
      <point x="-5" y="854" type="line"/>
      <point x="540" y="854" type="line"/>
      <point x="540" y="924" type="line"/>
      <point x="-5" y="924" type="line"/>
    </contour>
    <contour>
      <point x="247" y="724" type="curve" smooth="yes"/>
      <point x="108" y="724"/>
      <point x="30" y="650"/>
      <point x="30" y="492" type="curve" smooth="yes"/>
      <point x="30" y="445" type="line"/>
      <point x="119" y="445" type="line"/>
      <point x="119" y="490" type="line" smooth="yes"/>
      <point x="119" y="605"/>
      <point x="163" y="650"/>
      <point x="246" y="650" type="curve" smooth="yes"/>
      <point x="341" y="650"/>
      <point x="377" y="588"/>
      <point x="377" y="477" type="curve" smooth="yes"/>
      <point x="377" y="0" type="line"/>
      <point x="465" y="0" type="line"/>
      <point x="465" y="466" type="line" smooth="yes"/>
      <point x="465" y="634"/>
      <point x="396" y="724"/>
    </contour>
  </outline>
</glyph>
<glyph name="u1053F_fe26" format="2">
  <advance width="498"/>
  <outline>
    <contour>
      <point x="-5" y="854" type="line"/>
      <point x="503" y="854" type="line"/>
      <point x="503" y="924" type="line"/>
      <point x="-5" y="924" type="line"/>
    </contour>
    <contour>
      <point x="10" y="0" type="line"/>
      <point x="488" y="0" type="line"/>
      <point x="488" y="77" type="line"/>
      <point x="293" y="77" type="line"/>
      <point x="293" y="714" type="line"/>
      <point x="205" y="714" type="line"/>
      <point x="205" y="77" type="line"/>
      <point x="10" y="77" type="line"/>
    </contour>
  </outline>
</glyph>
<glyph name="u1053F_fe2d" format="2">
  <advance width="498"/>
  <outline>
    <contour>
      <point x="-5" y="-271" type="line"/>
      <point x="503" y="-271" type="line"/>
      <point x="503" y="-201" type="line"/>
      <point x="-5" y="-201" type="line"/>
    </contour>
    <contour>
      <point x="10" y="0" type="line"/>
      <point x="488" y="0" type="line"/>
      <point x="488" y="77" type="line"/>
      <point x="293" y="77" type="line"/>
      <point x="293" y="714" type="line"/>
      <point x="205" y="714" type="line"/>
      <point x="205" y="77" type="line"/>
      <point x="10" y="77" type="line"/>
    </contour>
  </outline>
</glyph>
<glyph name="u10541_fe26" format="2">
  <advance width="464"/>
  <outline>
    <contour>
      <point x="-5" y="854" type="line"/>
      <point x="469" y="854" type="line"/>
      <point x="469" y="924" type="line"/>
      <point x="-5" y="924" type="line"/>
    </contour>
    <contour>
      <point x="80" y="0" type="line"/>
      <point x="168" y="0" type="line"/>
      <point x="168" y="452" type="line"/>
      <point x="346" y="452" type="line"/>
      <point x="346" y="257" type="line"/>
      <point x="434" y="257" type="line"/>
      <point x="434" y="529" type="line"/>
      <point x="168" y="529" type="line"/>
      <point x="168" y="714" type="line"/>
      <point x="80" y="714" type="line"/>
    </contour>
  </outline>
</glyph>
<glyph name="u10542_fe2d" format="2">
  <advance width="600"/>
  <outline>
    <contour>
      <point x="-5" y="-271" type="line"/>
      <point x="605" y="-271" type="line"/>
      <point x="605" y="-201" type="line"/>
      <point x="-5" y="-201" type="line"/>
    </contour>
    <contour>
      <point x="441" y="-55" type="curve" smooth="yes"/>
      <point x="539" y="-55"/>
      <point x="590" y="1"/>
      <point x="590" y="92" type="curve" smooth="yes"/>
      <point x="590" y="160" type="line"/>
      <point x="508" y="160" type="line"/>
      <point x="508" y="99" type="line" smooth="yes"/>
      <point x="508" y="45"/>
      <point x="492" y="20"/>
      <point x="441" y="20" type="curve" smooth="yes"/>
      <point x="391" y="20"/>
      <point x="375" y="45"/>
      <point x="375" y="98" type="curve" smooth="yes"/>
      <point x="375" y="160" type="line"/>
      <point x="293" y="135" type="line"/>
      <point x="293" y="86" type="line" smooth="yes"/>
      <point x="293" y="-5"/>
      <point x="343" y="-55"/>
    </contour>
    <contour>
      <point x="79" y="-5" type="line"/>
      <point x="375" y="82" type="line"/>
      <point x="375" y="160" type="line"/>
      <point x="79" y="70" type="line"/>
    </contour>
    <contour>
      <point x="79" y="-5" type="line"/>
      <point x="342" y="308" type="line" smooth="yes"/>
      <point x="417" y="398"/>
      <point x="471" y="466"/>
      <point x="471" y="551" type="curve" smooth="yes"/>
      <point x="471" y="651"/>
      <point x="396" y="724"/>
      <point x="270" y="724" type="curve" smooth="yes"/>
      <point x="138" y="724"/>
      <point x="54" y="645"/>
      <point x="54" y="532" type="curve" smooth="yes"/>
      <point x="54" y="411"/>
      <point x="150" y="351"/>
      <point x="274" y="319" type="curve"/>
      <point x="318" y="376" type="line"/>
      <point x="218" y="399"/>
      <point x="141" y="449"/>
      <point x="141" y="535" type="curve" smooth="yes"/>
      <point x="141" y="602"/>
      <point x="188" y="653"/>
      <point x="267" y="653" type="curve" smooth="yes"/>
      <point x="347" y="653"/>
      <point x="382" y="599"/>
      <point x="382" y="544" type="curve" smooth="yes"/>
      <point x="382" y="475"/>
      <point x="323" y="404"/>
      <point x="273" y="345" type="curve" smooth="yes"/>
      <point x="21" y="48" type="line"/>
    </contour>
  </outline>
</glyph>
<glyph name="u10543_fe26" format="2">
  <advance width="501"/>
  <outline>
    <contour>
      <point x="-5" y="854" type="line"/>
      <point x="506" y="854" type="line"/>
      <point x="506" y="924" type="line"/>
      <point x="-5" y="924" type="line"/>
    </contour>
    <contour>
      <point x="80" y="0" type="line"/>
      <point x="449" y="0" type="line"/>
      <point x="449" y="77" type="line"/>
      <point x="168" y="77" type="line"/>
      <point x="168" y="340" type="line" smooth="yes"/>
      <point x="168" y="427"/>
      <point x="213" y="480"/>
      <point x="284" y="480" type="curve" smooth="yes"/>
      <point x="353" y="480"/>
      <point x="392" y="428"/>
      <point x="392" y="361" type="curve" smooth="yes"/>
      <point x="392" y="330"/>
      <point x="382" y="291"/>
      <point x="365" y="260" type="curve"/>
      <point x="444" y="235" type="line"/>
      <point x="468" y="275"/>
      <point x="481" y="321"/>
      <point x="481" y="364" type="curve" smooth="yes"/>
      <point x="481" y="466"/>
      <point x="421" y="558"/>
      <point x="311" y="558" type="curve" smooth="yes"/>
      <point x="257" y="558"/>
      <point x="204" y="538"/>
      <point x="169" y="481" type="curve"/>
      <point x="164" y="481" type="line"/>
      <point x="167" y="513"/>
      <point x="168" y="543"/>
      <point x="168" y="562" type="curve" smooth="yes"/>
      <point x="168" y="714" type="line"/>
      <point x="80" y="714" type="line"/>
    </contour>
  </outline>
</glyph>
<glyph name="u10544_fe2d" format="2">
  <advance width="518"/>
  <outline>
    <contour>
      <point x="-5" y="-271" type="line"/>
      <point x="523" y="-271" type="line"/>
      <point x="523" y="-201" type="line"/>
      <point x="-5" y="-201" type="line"/>
    </contour>
    <contour>
      <point x="60" y="0" type="line"/>
      <point x="508" y="0" type="line"/>
      <point x="508" y="77" type="line"/>
      <point x="310" y="77" type="line" smooth="yes"/>
      <point x="257" y="77"/>
      <point x="209" y="77"/>
      <point x="159" y="76" type="curve"/>
      <point x="374" y="374" type="line"/>
      <point x="168" y="639" type="line"/>
      <point x="195" y="638"/>
      <point x="255" y="637"/>
      <point x="284" y="637" type="curve" smooth="yes"/>
      <point x="479" y="637" type="line"/>
      <point x="479" y="714" type="line"/>
      <point x="66" y="714" type="line"/>
      <point x="66" y="639" type="line"/>
      <point x="274" y="373" type="line"/>
      <point x="60" y="74" type="line"/>
    </contour>
  </outline>
</glyph>
<glyph name="u10545_fe26" format="2">
  <advance width="536"/>
  <outline>
    <contour>
      <point x="-5" y="854" type="line"/>
      <point x="541" y="854" type="line"/>
      <point x="541" y="924" type="line"/>
      <point x="-5" y="924" type="line"/>
    </contour>
    <contour>
      <point x="10" y="445" type="curve"/>
      <point x="97" y="445" type="line"/>
      <point x="97" y="594"/>
      <point x="177" y="637"/>
      <point x="267" y="637" type="curve" smooth="yes"/>
      <point x="526" y="637" type="line"/>
      <point x="526" y="714" type="line"/>
      <point x="277" y="714" type="line" smooth="yes"/>
      <point x="111" y="714"/>
      <point x="10" y="627"/>
    </contour>
    <contour>
      <point x="246" y="0" type="line"/>
      <point x="334" y="0" type="line"/>
      <point x="334" y="678" type="line"/>
      <point x="246" y="678" type="line"/>
    </contour>
  </outline>
</glyph>
<glyph name="u10546_fe26" format="2">
  <advance width="359"/>
  <outline>
    <contour>
      <point x="-5" y="854" type="line"/>
      <point x="364" y="854" type="line"/>
      <point x="364" y="924" type="line"/>
      <point x="-5" y="924" type="line"/>
    </contour>
    <contour>
      <point x="67" y="-5" type="line"/>
      <point x="324" y="207" type="line"/>
      <point x="246" y="714" type="line"/>
      <point x="159" y="714" type="line"/>
      <point x="232" y="240" type="line"/>
      <point x="14" y="58" type="line"/>
    </contour>
  </outline>
</glyph>
<glyph name="u10547_fe26" format="2">
  <advance width="373"/>
  <outline>
    <contour>
      <point x="-5" y="854" type="line"/>
      <point x="378" y="854" type="line"/>
      <point x="378" y="924" type="line"/>
      <point x="-5" y="924" type="line"/>
    </contour>
    <contour>
      <point x="205" y="0" type="line"/>
      <point x="293" y="0" type="line"/>
      <point x="293" y="714" type="line"/>
      <point x="205" y="714" type="line"/>
      <point x="205" y="410" type="line"/>
      <point x="10" y="410" type="line"/>
      <point x="10" y="333" type="line"/>
      <point x="205" y="333" type="line"/>
    </contour>
  </outline>
</glyph>
<glyph name="u10548_fe2d" format="2">
  <advance width="691"/>
  <outline>
    <contour>
      <point x="-5" y="-271" type="line"/>
      <point x="696" y="-271" type="line"/>
      <point x="696" y="-201" type="line"/>
      <point x="-5" y="-201" type="line"/>
    </contour>
    <contour>
      <point x="10" y="637" type="line"/>
      <point x="247" y="637" type="line"/>
      <point x="247" y="714" type="line"/>
      <point x="10" y="714" type="line"/>
    </contour>
    <contour>
      <point x="388" y="-10" type="curve" smooth="yes"/>
      <point x="535" y="-10"/>
      <point x="621" y="72"/>
      <point x="621" y="244" type="curve" smooth="yes"/>
      <point x="621" y="714" type="line"/>
      <point x="533" y="714" type="line"/>
      <point x="533" y="267" type="line" smooth="yes"/>
      <point x="533" y="119"/>
      <point x="482" y="64"/>
      <point x="391" y="64" type="curve" smooth="yes"/>
      <point x="299" y="64"/>
      <point x="248" y="117"/>
      <point x="248" y="267" type="curve" smooth="yes"/>
      <point x="248" y="714" type="line"/>
      <point x="160" y="714" type="line"/>
      <point x="160" y="244" type="line" smooth="yes"/>
      <point x="160" y="71"/>
      <point x="242" y="-10"/>
    </contour>
  </outline>
</glyph>
<glyph name="u10549_fe26" format="2">
  <advance width="691"/>
  <outline>
    <contour>
      <point x="-5" y="854" type="line"/>
      <point x="696" y="854" type="line"/>
      <point x="696" y="924" type="line"/>
      <point x="-5" y="924" type="line"/>
    </contour>
    <contour>
      <point x="444" y="332" type="line"/>
      <point x="681" y="332" type="line"/>
      <point x="681" y="409" type="line"/>
      <point x="444" y="409" type="line"/>
    </contour>
    <contour>
      <point x="298" y="-10" type="curve" smooth="yes"/>
      <point x="445" y="-10"/>
      <point x="531" y="72"/>
      <point x="531" y="244" type="curve" smooth="yes"/>
      <point x="531" y="714" type="line"/>
      <point x="443" y="714" type="line"/>
      <point x="443" y="267" type="line" smooth="yes"/>
      <point x="443" y="119"/>
      <point x="392" y="64"/>
      <point x="301" y="64" type="curve" smooth="yes"/>
      <point x="209" y="64"/>
      <point x="158" y="117"/>
      <point x="158" y="267" type="curve" smooth="yes"/>
      <point x="158" y="714" type="line"/>
      <point x="70" y="714" type="line"/>
      <point x="70" y="244" type="line" smooth="yes"/>
      <point x="70" y="71"/>
      <point x="152" y="-10"/>
    </contour>
  </outline>
</glyph>
<glyph name="u1054A_fe2d" format="2">
  <advance width="629"/>
  <outline>
    <contour>
      <point x="-5" y="-271" type="line"/>
      <point x="634" y="-271" type="line"/>
      <point x="634" y="-201" type="line"/>
      <point x="-5" y="-201" type="line"/>
    </contour>
    <contour>
      <point x="249" y="-10" type="curve" smooth="yes"/>
      <point x="423" y="-10"/>
      <point x="490" y="91"/>
      <point x="490" y="252" type="curve" smooth="yes"/>
      <point x="490" y="714" type="line"/>
      <point x="402" y="714" type="line"/>
      <point x="402" y="242" type="line" smooth="yes"/>
      <point x="402" y="124"/>
      <point x="363" y="60"/>
      <point x="254" y="60" type="curve" smooth="yes"/>
      <point x="187" y="60"/>
      <point x="137" y="84"/>
      <point x="137" y="145" type="curve" smooth="yes"/>
      <point x="137" y="218"/>
      <point x="192" y="228"/>
      <point x="277" y="228" type="curve" smooth="yes"/>
      <point x="619" y="228" type="line"/>
      <point x="619" y="300" type="line"/>
      <point x="284" y="300" type="line" smooth="yes"/>
      <point x="157" y="300"/>
      <point x="50" y="273"/>
      <point x="50" y="143" type="curve" smooth="yes"/>
      <point x="50" y="37"/>
      <point x="133" y="-10"/>
    </contour>
    <contour>
      <point x="297" y="387" type="curve" smooth="yes"/>
      <point x="423" y="387" type="line"/>
      <point x="423" y="458" type="line"/>
      <point x="304" y="458" type="line" smooth="yes"/>
      <point x="218" y="458"/>
      <point x="165" y="480"/>
      <point x="165" y="554" type="curve" smooth="yes"/>
      <point x="165" y="629"/>
      <point x="220" y="644"/>
      <point x="310" y="644" type="curve" smooth="yes"/>
      <point x="416" y="644" type="line"/>
      <point x="416" y="714" type="line"/>
      <point x="293" y="714" type="line" smooth="yes"/>
      <point x="155" y="714"/>
      <point x="75" y="663"/>
      <point x="75" y="551" type="curve" smooth="yes"/>
      <point x="75" y="444"/>
      <point x="142" y="387"/>
    </contour>
  </outline>
</glyph>
<glyph name="u1054B_fe26" format="2">
  <advance width="523"/>
  <outline>
    <contour>
      <point x="-5" y="854" type="line"/>
      <point x="528" y="854" type="line"/>
      <point x="528" y="924" type="line"/>
      <point x="-5" y="924" type="line"/>
    </contour>
    <contour>
      <point x="267" y="-10" type="curve" smooth="yes"/>
      <point x="427" y="-10"/>
      <point x="493" y="81"/>
      <point x="493" y="190" type="curve" smooth="yes"/>
      <point x="493" y="253"/>
      <point x="471" y="295"/>
      <point x="436" y="330" type="curve"/>
      <point x="370" y="287" type="line"/>
      <point x="392" y="259"/>
      <point x="406" y="230"/>
      <point x="406" y="188" type="curve" smooth="yes"/>
      <point x="406" y="114"/>
      <point x="361" y="61"/>
      <point x="268" y="61" type="curve" smooth="yes"/>
      <point x="191" y="61"/>
      <point x="129" y="98"/>
      <point x="129" y="181" type="curve" smooth="yes"/>
      <point x="129" y="252"/>
      <point x="174" y="295"/>
      <point x="234" y="346" type="curve" smooth="yes"/>
      <point x="427" y="509" type="line"/>
      <point x="398" y="577" type="line"/>
      <point x="185" y="577" type="line" smooth="yes"/>
      <point x="148" y="577"/>
      <point x="122" y="585"/>
      <point x="122" y="621" type="curve" smooth="yes"/>
      <point x="122" y="651"/>
      <point x="145" y="664"/>
      <point x="184" y="675" type="curve"/>
      <point x="158" y="737" type="line"/>
      <point x="85" y="719"/>
      <point x="40" y="676"/>
      <point x="40" y="618" type="curve" smooth="yes"/>
      <point x="40" y="539"/>
      <point x="98" y="507"/>
      <point x="191" y="507" type="curve" smooth="yes"/>
      <point x="366" y="507" type="line"/>
      <point x="357" y="535" type="line"/>
      <point x="188" y="404" type="line" smooth="yes"/>
      <point x="113" y="346"/>
      <point x="43" y="281"/>
      <point x="43" y="175" type="curve" smooth="yes"/>
      <point x="43" y="58"/>
      <point x="129" y="-10"/>
    </contour>
  </outline>
</glyph>
<glyph name="u1054E_fe2d" format="2">
  <advance width="620"/>
  <outline>
    <contour>
      <point x="-5" y="-271" type="line"/>
      <point x="625" y="-271" type="line"/>
      <point x="625" y="-201" type="line"/>
      <point x="-5" y="-201" type="line"/>
    </contour>
    <contour>
      <point x="452" y="1" type="line"/>
      <point x="540" y="1" type="line"/>
      <point x="540" y="715" type="line"/>
      <point x="452" y="715" type="line"/>
      <point x="452" y="580" type="line" smooth="yes"/>
      <point x="452" y="476"/>
      <point x="408" y="417"/>
      <point x="324" y="417" type="curve" smooth="yes"/>
      <point x="246" y="417"/>
      <point x="214" y="471"/>
      <point x="214" y="541" type="curve" smooth="yes"/>
      <point x="214" y="602"/>
      <point x="233" y="667"/>
      <point x="271" y="714" type="curve"/>
      <point x="10" y="714" type="line"/>
      <point x="10" y="637" type="line"/>
      <point x="162" y="637" type="line"/>
      <point x="168" y="682" type="line"/>
      <point x="139" y="641"/>
      <point x="125" y="597"/>
      <point x="125" y="532" type="curve" smooth="yes"/>
      <point x="125" y="422"/>
      <point x="183" y="341"/>
      <point x="300" y="341" type="curve" smooth="yes"/>
      <point x="357" y="341"/>
      <point x="413" y="359"/>
      <point x="451" y="411" type="curve"/>
      <point x="457" y="411" type="line"/>
      <point x="453" y="368"/>
      <point x="452" y="355"/>
      <point x="452" y="335" type="curve" smooth="yes"/>
    </contour>
  </outline>
</glyph>
<glyph name="u1054F_fe26" format="2">
  <advance width="631"/>
  <outline>
    <contour>
      <point x="-5" y="854" type="line"/>
      <point x="636" y="854" type="line"/>
      <point x="636" y="924" type="line"/>
      <point x="-5" y="924" type="line"/>
    </contour>
    <contour>
      <point x="253" y="-10" type="curve" smooth="yes"/>
      <point x="403" y="-10"/>
      <point x="472" y="78"/>
      <point x="472" y="263" type="curve" smooth="yes"/>
      <point x="472" y="714" type="line"/>
      <point x="384" y="714" type="line"/>
      <point x="384" y="256" type="line" smooth="yes"/>
      <point x="384" y="123"/>
      <point x="343" y="64"/>
      <point x="251" y="64" type="curve" smooth="yes"/>
      <point x="160" y="64"/>
      <point x="119" y="129"/>
      <point x="119" y="273" type="curve" smooth="yes"/>
      <point x="119" y="354" type="line"/>
      <point x="30" y="354" type="line"/>
      <point x="30" y="266" type="line" smooth="yes"/>
      <point x="30" y="84"/>
      <point x="97" y="-10"/>
    </contour>
    <contour>
      <point x="384" y="333" type="line"/>
      <point x="621" y="333" type="line"/>
      <point x="621" y="410" type="line"/>
      <point x="384" y="410" type="line"/>
    </contour>
  </outline>
</glyph>
<glyph name="u10550_fe2d" format="2">
  <advance width="622"/>
  <outline>
    <contour>
      <point x="-5" y="-271" type="line"/>
      <point x="627" y="-271" type="line"/>
      <point x="627" y="-201" type="line"/>
      <point x="-5" y="-201" type="line"/>
    </contour>
    <contour>
      <point x="244" y="-10" type="curve" smooth="yes"/>
      <point x="392" y="-10"/>
      <point x="463" y="78"/>
      <point x="463" y="242" type="curve" smooth="yes"/>
      <point x="463" y="714" type="line"/>
      <point x="375" y="714" type="line"/>
      <point x="375" y="261" type="line" smooth="yes"/>
      <point x="375" y="132"/>
      <point x="341" y="64"/>
      <point x="246" y="64" type="curve" smooth="yes"/>
      <point x="171" y="64"/>
      <point x="118" y="107"/>
      <point x="118" y="198" type="curve" smooth="yes"/>
      <point x="118" y="301"/>
      <point x="185" y="332"/>
      <point x="297" y="332" type="curve" smooth="yes"/>
      <point x="612" y="332" type="line"/>
      <point x="612" y="409" type="line"/>
      <point x="287" y="409" type="line" smooth="yes"/>
      <point x="130" y="409"/>
      <point x="30" y="348"/>
      <point x="30" y="198" type="curve" smooth="yes"/>
      <point x="30" y="66"/>
      <point x="107" y="-10"/>
    </contour>
    <contour>
      <point x="76" y="637" type="line"/>
      <point x="386" y="637" type="line"/>
      <point x="386" y="714" type="line"/>
      <point x="76" y="714" type="line"/>
    </contour>
  </outline>
</glyph>
<glyph name="u10551_fe26" format="2">
  <advance width="611"/>
  <outline>
    <contour>
      <point x="-5" y="854" type="line"/>
      <point x="616" y="854" type="line"/>
      <point x="616" y="924" type="line"/>
      <point x="-5" y="924" type="line"/>
    </contour>
    <contour>
      <point x="374" y="0" type="line"/>
      <point x="601" y="0" type="line"/>
      <point x="601" y="77" type="line"/>
      <point x="374" y="77" type="line"/>
    </contour>
    <contour>
      <point x="374" y="0" type="line"/>
      <point x="462" y="0" type="line"/>
      <point x="462" y="714" type="line"/>
      <point x="374" y="714" type="line"/>
      <point x="374" y="379" type="line"/>
      <point x="291" y="379" type="line" smooth="yes"/>
      <point x="187" y="379"/>
      <point x="121" y="414"/>
      <point x="121" y="507" type="curve" smooth="yes"/>
      <point x="121" y="595"/>
      <point x="181" y="637"/>
      <point x="291" y="637" type="curve" smooth="yes"/>
      <point x="394" y="637" type="line"/>
      <point x="394" y="714" type="line"/>
      <point x="270" y="714" type="line" smooth="yes"/>
      <point x="114" y="714"/>
      <point x="30" y="633"/>
      <point x="30" y="504" type="curve" smooth="yes"/>
      <point x="30" y="360"/>
      <point x="135" y="302"/>
      <point x="280" y="302" type="curve" smooth="yes"/>
      <point x="374" y="302" type="line"/>
    </contour>
  </outline>
</glyph>
<glyph name="u10552_fe2d" format="2">
  <advance width="755"/>
  <outline>
    <contour>
      <point x="-5" y="-271" type="line"/>
      <point x="760" y="-271" type="line"/>
      <point x="760" y="-201" type="line"/>
      <point x="-5" y="-201" type="line"/>
    </contour>
    <contour>
      <point x="325" y="-10" type="curve" smooth="yes"/>
      <point x="511" y="-10"/>
      <point x="600" y="143"/>
      <point x="600" y="361" type="curve" smooth="yes"/>
      <point x="600" y="587"/>
      <point x="508" y="724"/>
      <point x="328" y="724" type="curve" smooth="yes"/>
      <point x="143" y="724"/>
      <point x="50" y="576"/>
      <point x="50" y="359" type="curve" smooth="yes"/>
      <point x="50" y="140"/>
      <point x="139" y="-10"/>
    </contour>
    <contour>
      <point x="326" y="64" type="curve" smooth="yes"/>
      <point x="200" y="64"/>
      <point x="143" y="182"/>
      <point x="143" y="358" type="curve" smooth="yes"/>
      <point x="143" y="532"/>
      <point x="201" y="650"/>
      <point x="329" y="650" type="curve" smooth="yes"/>
      <point x="448" y="650"/>
      <point x="508" y="542"/>
      <point x="508" y="358" type="curve" smooth="yes"/>
      <point x="508" y="181"/>
      <point x="452" y="64"/>
    </contour>
    <contour>
      <point x="508" y="333" type="line"/>
      <point x="745" y="333" type="line"/>
      <point x="745" y="410" type="line"/>
      <point x="508" y="410" type="line"/>
    </contour>
  </outline>
</glyph>
<glyph name="u10553_fe2d" format="2">
  <advance width="525"/>
  <outline>
    <contour>
      <point x="-5" y="-271" type="line"/>
      <point x="530" y="-271" type="line"/>
      <point x="530" y="-201" type="line"/>
      <point x="-5" y="-201" type="line"/>
    </contour>
    <contour>
      <point x="35" y="0" type="line"/>
      <point x="490" y="0" type="line"/>
      <point x="490" y="77" type="line"/>
      <point x="137" y="77" type="line"/>
      <point x="480" y="646" type="line"/>
      <point x="480" y="714" type="line"/>
      <point x="47" y="714" type="line"/>
      <point x="47" y="637" type="line"/>
      <point x="379" y="637" type="line"/>
      <point x="35" y="68" type="line"/>
    </contour>
  </outline>
</glyph>
<glyph name="u10555_fe2d" format="2">
  <advance width="600"/>
  <outline>
    <contour>
      <point x="-5" y="-271" type="line"/>
      <point x="605" y="-271" type="line"/>
      <point x="605" y="-201" type="line"/>
      <point x="-5" y="-201" type="line"/>
    </contour>
    <contour>
      <point x="59" y="-5" type="line"/>
      <point x="291" y="313" type="line" smooth="yes"/>
      <point x="362" y="410"/>
      <point x="486" y="578"/>
      <point x="590" y="650" type="curve"/>
      <point x="538" y="714" type="line"/>
      <point x="410" y="620"/>
      <point x="263" y="420"/>
      <point x="208" y="343" type="curve" smooth="yes"/>
      <point x="-5" y="48" type="line"/>
    </contour>
    <contour>
      <point x="421" y="-55" type="curve" smooth="yes"/>
      <point x="519" y="-55"/>
      <point x="570" y="1"/>
      <point x="570" y="92" type="curve" smooth="yes"/>
      <point x="570" y="160" type="line"/>
      <point x="488" y="160" type="line"/>
      <point x="488" y="99" type="line" smooth="yes"/>
      <point x="488" y="45"/>
      <point x="472" y="20"/>
      <point x="421" y="20" type="curve" smooth="yes"/>
      <point x="371" y="20"/>
      <point x="355" y="45"/>
      <point x="355" y="98" type="curve" smooth="yes"/>
      <point x="355" y="160" type="line"/>
      <point x="273" y="135" type="line"/>
      <point x="273" y="86" type="line" smooth="yes"/>
      <point x="273" y="-5"/>
      <point x="323" y="-55"/>
    </contour>
    <contour>
      <point x="59" y="-5" type="line"/>
      <point x="355" y="82" type="line"/>
      <point x="355" y="160" type="line"/>
      <point x="59" y="70" type="line"/>
    </contour>
  </outline>
</glyph>
<glyph name="u10558_fe26" format="2">
  <advance width="522"/>
  <outline>
    <contour>
      <point x="-5" y="854" type="line"/>
      <point x="527" y="854" type="line"/>
      <point x="527" y="924" type="line"/>
      <point x="-5" y="924" type="line"/>
    </contour>
    <contour>
      <point x="115" y="637" type="line"/>
      <point x="481" y="637" type="line"/>
      <point x="481" y="714" type="line"/>
      <point x="115" y="714" type="line"/>
    </contour>
    <contour>
      <point x="251" y="-10" type="curve" smooth="yes"/>
      <point x="395" y="-10"/>
      <point x="482" y="75"/>
      <point x="482" y="212" type="curve" smooth="yes"/>
      <point x="482" y="363"/>
      <point x="377" y="433"/>
      <point x="292" y="489" type="curve" smooth="yes"/>
      <point x="197" y="552"/>
      <point x="175" y="576"/>
      <point x="162" y="714" type="curve"/>
      <point x="75" y="714" type="line"/>
      <point x="86" y="528"/>
      <point x="148" y="486"/>
      <point x="249" y="421" type="curve" smooth="yes"/>
      <point x="332" y="368"/>
      <point x="393" y="325"/>
      <point x="393" y="216" type="curve" smooth="yes"/>
      <point x="393" y="121"/>
      <point x="351" y="64"/>
      <point x="254" y="64" type="curve" smooth="yes"/>
      <point x="150" y="64"/>
      <point x="119" y="130"/>
      <point x="119" y="205" type="curve" smooth="yes"/>
      <point x="119" y="240"/>
      <point x="126" y="282"/>
      <point x="141" y="313" type="curve"/>
      <point x="66" y="347" type="line"/>
      <point x="42" y="302"/>
      <point x="30" y="246"/>
      <point x="30" y="199" type="curve" smooth="yes"/>
      <point x="30" y="89"/>
      <point x="95" y="-10"/>
    </contour>
  </outline>
</glyph>
<glyph name="u10559_fe26" format="2">
  <advance width="822"/>
  <outline>
    <contour>
      <point x="-5" y="854" type="line"/>
      <point x="827" y="854" type="line"/>
      <point x="827" y="924" type="line"/>
      <point x="-5" y="924" type="line"/>
    </contour>
    <contour>
      <point x="240" y="-10" type="curve" smooth="yes"/>
      <point x="340" y="-10"/>
      <point x="400" y="37"/>
      <point x="421" y="123" type="curve"/>
      <point x="401" y="123" type="line"/>
      <point x="422" y="37"/>
      <point x="477" y="-10"/>
      <point x="582" y="-10" type="curve" smooth="yes"/>
      <point x="717" y="-10"/>
      <point x="792" y="64"/>
      <point x="792" y="223" type="curve" smooth="yes"/>
      <point x="792" y="269" type="line"/>
      <point x="704" y="269" type="line"/>
      <point x="704" y="236" type="line" smooth="yes"/>
      <point x="704" y="109"/>
      <point x="661" y="64"/>
      <point x="583" y="64" type="curve" smooth="yes"/>
      <point x="490" y="64"/>
      <point x="455" y="126"/>
      <point x="455" y="237" type="curve" smooth="yes"/>
      <point x="455" y="714" type="line"/>
      <point x="367" y="714" type="line"/>
      <point x="367" y="237" type="line" smooth="yes"/>
      <point x="367" y="126"/>
      <point x="332" y="64"/>
      <point x="239" y="64" type="curve" smooth="yes"/>
      <point x="161" y="64"/>
      <point x="118" y="109"/>
      <point x="118" y="232" type="curve" smooth="yes"/>
      <point x="118" y="269" type="line"/>
      <point x="30" y="269" type="line"/>
      <point x="30" y="217" type="line" smooth="yes"/>
      <point x="30" y="64"/>
      <point x="105" y="-10"/>
    </contour>
  </outline>
</glyph>
<glyph name="u1055A_fe26" format="2">
  <advance width="607"/>
  <outline>
    <contour>
      <point x="-5" y="854" type="line"/>
      <point x="612" y="854" type="line"/>
      <point x="612" y="924" type="line"/>
      <point x="-5" y="924" type="line"/>
    </contour>
    <contour>
      <point x="159" y="0" type="line"/>
      <point x="247" y="0" type="line"/>
      <point x="247" y="214" type="line" smooth="yes"/>
      <point x="247" y="307"/>
      <point x="283" y="398"/>
      <point x="377" y="398" type="curve" smooth="yes"/>
      <point x="445" y="398"/>
      <point x="478" y="351"/>
      <point x="478" y="244" type="curve" smooth="yes"/>
      <point x="478" y="0" type="line"/>
      <point x="566" y="0" type="line"/>
      <point x="566" y="262" type="line" smooth="yes"/>
      <point x="566" y="414"/>
      <point x="499" y="473"/>
      <point x="402" y="473" type="curve" smooth="yes"/>
      <point x="333" y="473"/>
      <point x="283" y="447"/>
      <point x="248" y="386" type="curve"/>
      <point x="243" y="386" type="line"/>
      <point x="246" y="435"/>
      <point x="247" y="465"/>
      <point x="247" y="496" type="curve" smooth="yes"/>
      <point x="247" y="714" type="line"/>
      <point x="159" y="714" type="line"/>
    </contour>
    <contour>
      <point x="10" y="637" type="line"/>
      <point x="247" y="637" type="line"/>
      <point x="247" y="714" type="line"/>
      <point x="10" y="714" type="line"/>
    </contour>
  </outline>
</glyph>
<glyph name="u1055B_fe2d" format="2">
  <advance width="601"/>
  <outline>
    <contour>
      <point x="-5" y="-271" type="line"/>
      <point x="606" y="-271" type="line"/>
      <point x="606" y="-201" type="line"/>
      <point x="-5" y="-201" type="line"/>
    </contour>
    <contour>
      <point x="80" y="0" type="line"/>
      <point x="168" y="0" type="line"/>
      <point x="168" y="714" type="line"/>
      <point x="80" y="714" type="line"/>
    </contour>
    <contour>
      <point x="442" y="173" type="curve" smooth="yes"/>
      <point x="540" y="173"/>
      <point x="591" y="229"/>
      <point x="591" y="320" type="curve" smooth="yes"/>
      <point x="591" y="388" type="line"/>
      <point x="509" y="388" type="line"/>
      <point x="509" y="327" type="line" smooth="yes"/>
      <point x="509" y="273"/>
      <point x="493" y="248"/>
      <point x="442" y="248" type="curve" smooth="yes"/>
      <point x="392" y="248"/>
      <point x="376" y="273"/>
      <point x="376" y="326" type="curve" smooth="yes"/>
      <point x="376" y="388" type="line"/>
      <point x="294" y="363" type="line"/>
      <point x="294" y="314" type="line" smooth="yes"/>
      <point x="294" y="223"/>
      <point x="344" y="173"/>
    </contour>
    <contour>
      <point x="80" y="223" type="line"/>
      <point x="376" y="310" type="line"/>
      <point x="376" y="388" type="line"/>
      <point x="80" y="298" type="line"/>
    </contour>
  </outline>
</glyph>
<glyph name="u1055C_fe26" format="2">
  <advance width="687"/>
  <outline>
    <contour>
      <point x="-5" y="854" type="line"/>
      <point x="692" y="854" type="line"/>
      <point x="692" y="924" type="line"/>
      <point x="-5" y="924" type="line"/>
    </contour>
    <contour>
      <point x="454" y="-10" type="curve" smooth="yes"/>
      <point x="589" y="-10"/>
      <point x="667" y="68"/>
      <point x="667" y="201" type="curve" smooth="yes"/>
      <point x="667" y="351"/>
      <point x="568" y="409"/>
      <point x="442" y="409" type="curve" smooth="yes"/>
      <point x="212" y="409"/>
      <point x="96" y="214"/>
      <point x="10" y="30" type="curve"/>
      <point x="81" y="-5" type="line"/>
      <point x="164" y="173"/>
      <point x="258" y="332"/>
      <point x="432" y="332" type="curve" smooth="yes"/>
      <point x="513" y="332"/>
      <point x="579" y="297"/>
      <point x="579" y="198" type="curve" smooth="yes"/>
      <point x="579" y="108"/>
      <point x="526" y="64"/>
      <point x="455" y="64" type="curve" smooth="yes"/>
      <point x="353" y="64"/>
      <point x="322" y="153"/>
      <point x="322" y="267" type="curve" smooth="yes"/>
      <point x="322" y="714" type="line"/>
      <point x="234" y="714" type="line"/>
      <point x="234" y="242" type="line" smooth="yes"/>
      <point x="234" y="78"/>
      <point x="310" y="-10"/>
    </contour>
    <contour>
      <point x="22" y="637" type="line"/>
      <point x="322" y="637" type="line"/>
      <point x="322" y="714" type="line"/>
      <point x="22" y="714" type="line"/>
    </contour>
  </outline>
</glyph>
<glyph name="u1055F_fe2d" format="2">
  <advance width="626"/>
  <outline>
    <contour>
      <point x="-5" y="-271" type="line"/>
      <point x="631" y="-271" type="line"/>
      <point x="631" y="-201" type="line"/>
      <point x="-5" y="-201" type="line"/>
    </contour>
    <contour>
      <point x="269" y="0" type="line"/>
      <point x="357" y="0" type="line"/>
      <point x="357" y="678" type="line"/>
      <point x="269" y="678" type="line"/>
    </contour>
    <contour>
      <point x="528" y="445" type="curve"/>
      <point x="616" y="445" type="line"/>
      <point x="616" y="613"/>
      <point x="553" y="714"/>
      <point x="349" y="714" type="curve" smooth="yes"/>
      <point x="269" y="714" type="line"/>
      <point x="269" y="637" type="line"/>
      <point x="344" y="637" type="line" smooth="yes"/>
      <point x="491" y="637"/>
      <point x="528" y="560"/>
    </contour>
    <contour>
      <point x="98" y="528" type="curve"/>
      <point x="10" y="528" type="line"/>
      <point x="10" y="360"/>
      <point x="73" y="259"/>
      <point x="277" y="259" type="curve" smooth="yes"/>
      <point x="357" y="259" type="line"/>
      <point x="357" y="336" type="line"/>
      <point x="282" y="336" type="line" smooth="yes"/>
      <point x="135" y="336"/>
      <point x="98" y="413"/>
    </contour>
  </outline>
</glyph>
<glyph name="u10560_fe26" format="2">
  <advance width="607"/>
  <outline>
    <contour>
      <point x="-5" y="854" type="line"/>
      <point x="612" y="854" type="line"/>
      <point x="612" y="924" type="line"/>
      <point x="-5" y="924" type="line"/>
    </contour>
    <contour>
      <point x="10" y="445" type="curve"/>
      <point x="98" y="445" type="line"/>
      <point x="98" y="571"/>
      <point x="156" y="647"/>
      <point x="302" y="647" type="curve" smooth="yes"/>
      <point x="448" y="647"/>
      <point x="509" y="575"/>
      <point x="509" y="445" type="curve"/>
      <point x="597" y="445" type="line"/>
      <point x="597" y="629"/>
      <point x="502" y="724"/>
      <point x="301" y="724" type="curve" smooth="yes"/>
      <point x="106" y="724"/>
      <point x="10" y="630"/>
    </contour>
    <contour>
      <point x="259" y="0" type="line"/>
      <point x="347" y="0" type="line"/>
      <point x="347" y="678" type="line"/>
      <point x="259" y="678" type="line"/>
    </contour>
  </outline>
</glyph>
<glyph name="u10561_fe26" format="2">
  <advance width="452"/>
  <outline>
    <contour>
      <point x="-5" y="854" type="line"/>
      <point x="457" y="854" type="line"/>
      <point x="457" y="924" type="line"/>
      <point x="-5" y="924" type="line"/>
    </contour>
    <contour>
      <point x="205" y="0" type="line"/>
      <point x="293" y="0" type="line"/>
      <point x="293" y="714" type="line"/>
      <point x="10" y="714" type="line"/>
      <point x="10" y="637" type="line"/>
      <point x="205" y="637" type="line"/>
    </contour>
    <contour>
      <point x="205" y="332" type="line"/>
      <point x="442" y="332" type="line"/>
      <point x="442" y="409" type="line"/>
      <point x="205" y="409" type="line"/>
    </contour>
  </outline>
</glyph>
<glyph name="u10562_fe26" format="2">
  <advance width="545"/>
  <outline>
    <contour>
      <point x="-5" y="854" type="line"/>
      <point x="550" y="854" type="line"/>
      <point x="550" y="924" type="line"/>
      <point x="-5" y="924" type="line"/>
    </contour>
    <contour>
      <point x="270" y="234" type="curve" smooth="yes"/>
      <point x="413" y="234"/>
      <point x="495" y="313"/>
      <point x="495" y="478" type="curve" smooth="yes"/>
      <point x="495" y="714" type="line"/>
      <point x="407" y="714" type="line"/>
      <point x="407" y="501" type="line" smooth="yes"/>
      <point x="407" y="364"/>
      <point x="370" y="310"/>
      <point x="270" y="310" type="curve" smooth="yes"/>
      <point x="170" y="310"/>
      <point x="138" y="364"/>
      <point x="138" y="501" type="curve" smooth="yes"/>
      <point x="138" y="714" type="line"/>
      <point x="50" y="714" type="line"/>
      <point x="50" y="478" type="line" smooth="yes"/>
      <point x="50" y="312"/>
      <point x="129" y="234"/>
    </contour>
    <contour>
      <point x="226" y="0" type="line"/>
      <point x="314" y="0" type="line"/>
      <point x="314" y="275" type="line"/>
      <point x="226" y="275" type="line"/>
    </contour>
  </outline>
</glyph>
<glyph name="u10563_fe2d" format="2">
  <advance width="498"/>
  <outline>
    <contour>
      <point x="-5" y="-271" type="line"/>
      <point x="503" y="-271" type="line"/>
      <point x="503" y="-201" type="line"/>
      <point x="-5" y="-201" type="line"/>
    </contour>
    <contour>
      <point x="205" y="-43" type="line"/>
      <point x="293" y="-43" type="line"/>
      <point x="293" y="120" type="line"/>
      <point x="488" y="120" type="line"/>
      <point x="488" y="197" type="line"/>
      <point x="293" y="197" type="line"/>
      <point x="293" y="714" type="line"/>
      <point x="205" y="714" type="line"/>
      <point x="205" y="197" type="line"/>
      <point x="10" y="197" type="line"/>
      <point x="10" y="120" type="line"/>
      <point x="205" y="120" type="line"/>
    </contour>
  </outline>
</glyph>
